<?xml version="1.0" encoding="utf-8"?>
<!-- Generator: Adobe Illustrator 26.0.2, SVG Export Plug-In . SVG Version: 6.00 Build 0)  -->
<svg version="1.1" id="Layer_1" xmlns="http://www.w3.org/2000/svg" xmlns:xlink="http://www.w3.org/1999/xlink" x="0px" y="0px"
	 width="15px" height="15px" viewBox="0 0 15 15" style="enable-background:new 0 0 15 15;" xml:space="preserve">
<style type="text/css">
	.st0{fill:#F7F7F7;stroke:#000000;stroke-width:0.5;stroke-miterlimit:10;}
</style>
<path class="st0" d="M10.9,4.1H4.1c-0.5,0-1-0.4-1-1V0.8c0-0.3,0.2-0.5,0.5-0.5s0.5,0.2,0.5,0.5v1.4h1v-1c0-0.5,0.4-1,1-1s1,0.4,1,1
	v1h1v-1c0-0.5,0.4-1,1-1c0.5,0,1,0.4,1,1v1h1V0.8c0-0.3,0.2-0.5,0.5-0.5c0.3,0,0.5,0.2,0.5,0.5v2.4C11.8,3.7,11.4,4.1,10.9,4.1z
	 M13.7,14.2c0,0.3-0.2,0.5-0.5,0.5H1.7c-0.3,0-0.5-0.2-0.5-0.5s0.2-0.5,0.5-0.5h0.5c0.5,0,1-0.4,1-1c0,0,1-5.8,1-6.7
	c0-0.5,0.4-1,1-1h4.8c0.5,0,1,0.4,1,1c0,1,1,6.7,1,6.7c0,0.5,0.4,1,1,1h0.5C13.5,13.8,13.7,14,13.7,14.2L13.7,14.2z M8.9,10.4
	C8.9,9.6,8.3,9,7.5,9s-1.4,0.6-1.4,1.4v3.4h2.9V10.4z"/>
</svg>
