<svg id="Layer_1" data-name="Layer 1" xmlns="http://www.w3.org/2000/svg" width="375.2006" height="379.4035" viewBox="0 0 375.2006 379.4035"><path d="M306.1847,585.9629c-101.9154-.0024-187.477-82.8607-187.62-189.4553-.1412-105.45,83.711-190.1929,188.0648-189.9477,104.7374.2462,188.54,86.3342,187.1177,192.379C492.3528,502.9167,408.7679,585.76,306.1847,585.9629Zm-1.3505-66.3756c1.586-2.1308,2.5246-3.2455,3.3046-4.4619,10.6961-16.681,21.708-33.1715,31.9724-50.1146,16.2349-26.7982,31.4456-54.1507,42.0926-83.793,9.56-26.6149,5.6578-51.4274-11.0125-73.7667-23.5272-31.528-62.8851-41.6357-99.2471-26.4657-37.5134,15.65-57.4492,58.6341-44.7918,97.1435a261.9085,261.9085,0,0,0,10.4208,26.4751c12.8414,28.2638,28.6465,54.9075,45.226,81.0977C289.8148,496.7841,297.0926,507.7,304.8342,519.5873Z" transform="translate(-118.5649 -206.5594)" fill="#666666"/><path d="M304.8342,519.5873c-7.7416-11.8869-15.0194-22.8032-22.035-33.8856-16.5795-26.19-32.3846-52.8339-45.226-81.0977a261.9085,261.9085,0,0,1-10.4208-26.4751c-12.6574-38.5094,7.2784-81.4932,44.7918-97.1435,36.362-15.17,75.72-5.0623,99.2471,26.4657,16.67,22.3393,20.572,47.1518,11.0125,73.7667-10.647,29.6423-25.8577,56.9948-42.0926,83.793-10.2644,16.9431-21.2763,33.4336-31.9724,50.1146C307.3588,516.3418,306.42,517.4565,304.8342,519.5873Zm37.0284-159.15a36.7708,36.7708,0,1,0-73.54-.2671c-.0411,19.931,16.6012,36.5683,36.656,36.6451C324.9675,396.8919,341.7873,380.3028,341.8626,360.4374Z" transform="translate(-118.5649 -206.5594)" fill="#fdfdfe"/><path d="M341.8626,360.4374c-.0753,19.8654-16.8951,36.4545-36.884,36.378-20.0548-.0768-36.6971-16.7141-36.656-36.6451a36.7708,36.7708,0,1,1,73.54.2671Z" transform="translate(-118.5649 -206.5594)" fill="#666666"/></svg>